<?xml version="1.0" standalone="no"?>
<!DOCTYPE svg PUBLIC "-//W3C//DTD SVG 20010904//EN"
 "http://www.w3.org/TR/2001/REC-SVG-20010904/DTD/svg10.dtd">
<svg version="1.0" xmlns="http://www.w3.org/2000/svg"
 width="50.000000pt" height="50.000000pt" viewBox="0 0 500.000000 500.000000"
 preserveAspectRatio="xMidYMid meet">

<g transform="translate(0.000000,500.000000) scale(0.100000,-0.100000)"
fill="#000000" stroke="none">
<path d="M2455 4653 c-11 -2 -398 -277 -860 -612 -775 -561 -841 -610 -853
-646 -19 -57 -13 -1701 6 -1730 8 -11 390 -297 850 -635 736 -540 842 -615
877 -618 40 -4 62 12 860 593 451 328 832 610 848 626 l27 29 0 878 c0 816 -2
878 -18 898 -9 12 -28 27 -42 34 -14 8 -382 274 -819 593 -653 476 -855 617
-856 596 0 -1 -9 -4 -20 -6z m744 -768 c385 -280 699 -514 697 -520 -1 -5
-321 -241 -709 -522 l-707 -513 -702 501 c-387 276 -711 509 -720 518 -16 15
33 52 695 533 392 284 719 516 729 515 9 -1 331 -231 717 -512z m-1477 -1288
l648 -462 0 -697 0 -698 -153 113 c-84 61 -402 294 -705 517 l-552 405 0 683
0 683 58 -41 c31 -23 348 -249 704 -503z m2251 -848 c-27 -25 -1352 -989
-1369 -996 -12 -4 -14 89 -14 684 0 654 1 691 18 706 10 9 324 237 698 506
l679 489 3 -686 c2 -644 1 -687 -15 -703z"/>
<path d="M2045 3586 c-59 -22 -95 -67 -95 -119 0 -74 36 -104 178 -146 104
-31 133 -67 97 -118 -29 -41 -139 -52 -198 -21 -18 9 -18 10 2 24 26 19 26 35
3 64 -15 18 -25 22 -46 16 -66 -16 -53 -106 21 -142 49 -24 193 -27 237 -4 74
38 95 134 41 190 -29 30 -66 47 -168 75 -63 17 -97 44 -97 75 0 48 83 86 153
70 50 -11 52 -13 32 -43 -25 -39 -5 -69 43 -65 47 4 65 43 42 86 -32 57 -163
88 -245 58z"/>
<path d="M2492 3568 c2 -19 9 -23 36 -23 l32 1 0 -188 0 -188 -30 0 c-23 0
-30 -4 -30 -20 0 -19 7 -20 100 -20 93 0 100 1 100 20 0 17 -7 20 -40 20 l-40
0 1 183 0 182 67 -167 c69 -173 80 -192 98 -180 6 4 36 78 68 165 32 86 60
157 62 157 2 0 4 -76 4 -170 l0 -170 -35 0 c-28 0 -35 -4 -35 -20 0 -19 7 -20
108 -20 101 0 108 1 108 20 0 16 -7 20 -38 20 l-38 0 2 188 3 187 30 0 c23 1
31 6 33 23 3 22 2 23 -85 20 l-88 -3 -47 -134 c-26 -74 -49 -136 -52 -138 -2
-2 -27 60 -56 137 l-53 140 -94 0 c-92 0 -94 -1 -91 -22z"/>
<path d="M1310 2622 c0 -4 5 -13 11 -19 8 -8 -3 -31 -42 -87 -42 -61 -55 -73
-66 -64 -9 7 -17 8 -24 1 -10 -10 68 -73 90 -73 17 0 13 18 -6 28 -15 9 -14
13 10 46 24 31 30 34 47 24 13 -9 18 -19 14 -35 -9 -35 12 -28 36 13 24 37 21
55 -5 34 -12 -10 -18 -10 -30 0 -19 16 -19 30 4 59 l18 23 41 -27 c23 -15 42
-29 42 -32 0 -2 -7 -14 -16 -27 -19 -31 2 -49 23 -20 37 49 37 49 -50 108 -81
56 -97 63 -97 48z"/>
<path d="M1490 2496 c0 -8 6 -16 13 -19 8 -3 -5 -29 -38 -78 -40 -58 -55 -73
-73 -72 -34 4 -26 -14 18 -43 38 -25 67 -27 43 -3 -9 9 -6 21 10 45 26 39 28
40 51 15 17 -19 17 -22 0 -66 -17 -45 -17 -47 4 -67 18 -19 25 -20 47 -10 27
12 42 38 30 50 -3 4 -12 -1 -19 -11 -19 -25 -40 -22 -31 6 4 12 9 34 12 50 4
20 11 27 28 27 40 0 65 43 49 85 -6 15 -124 105 -138 105 -3 0 -6 -6 -6 -14z
m103 -88 c17 -22 18 -30 7 -43 -16 -19 -44 -19 -75 1 l-25 16 21 30 c25 34 44
33 72 -4z"/>
<path d="M1691 2313 c-44 -22 -71 -67 -71 -119 0 -78 73 -130 142 -101 101 42
116 177 25 220 -43 21 -53 21 -96 0z m97 -29 c35 -24 30 -85 -10 -129 -43 -45
-79 -54 -107 -26 -12 12 -21 30 -21 41 0 39 29 90 62 110 40 24 47 25 76 4z"/>
<path d="M1896 2223 c-3 -3 1 -14 9 -22 12 -15 8 -25 -36 -89 -39 -56 -55 -71
-69 -67 -10 3 -21 2 -24 -3 -8 -13 72 -64 86 -56 8 5 6 11 -5 19 -13 10 -10
19 31 78 25 37 47 65 49 63 2 -2 -1 -50 -6 -107 -10 -100 -5 -129 20 -129 4 0
33 37 65 83 32 45 59 84 61 86 1 2 9 -2 17 -8 9 -7 17 -8 20 -2 7 11 -73 72
-86 65 -5 -3 -2 -14 6 -23 14 -15 11 -23 -29 -81 l-45 -64 1 40 c0 21 3 70 8
107 7 66 6 69 -18 86 -40 28 -48 31 -55 24z"/>
<path d="M1280 2105 c0 -8 5 -15 11 -15 16 0 8 -19 -41 -93 -38 -57 -49 -66
-67 -62 -13 3 -23 1 -23 -4 0 -10 155 -121 168 -121 4 0 17 16 29 35 28 43 10
63 -21 22 l-19 -26 -43 31 -43 31 21 31 c12 17 23 32 24 34 1 2 12 -1 23 -8
16 -8 20 -17 15 -35 -9 -35 7 -31 34 8 28 41 30 68 4 44 -16 -15 -20 -15 -40
-1 l-22 15 20 30 c26 36 36 36 79 0 33 -27 33 -28 17 -53 -15 -23 -13 -38 5
-38 8 0 53 70 48 74 -41 30 -169 116 -173 116 -3 0 -6 -7 -6 -15z"/>
<path d="M2096 2033 c-19 -28 -22 -39 -13 -45 7 -5 19 2 30 17 21 28 39 32 57
10 10 -11 2 -28 -41 -90 -36 -53 -55 -73 -63 -65 -14 14 -26 13 -26 -2 0 -16
81 -69 93 -61 5 3 2 12 -6 21 -14 13 -10 23 36 88 28 41 54 74 57 74 3 0 14
-7 24 -15 18 -13 18 -16 2 -39 -19 -30 -21 -46 -3 -46 12 0 52 56 52 72 0 8
-156 118 -167 118 -4 0 -19 -17 -32 -37z"/>
<path d="M1470 1975 c0 -8 5 -15 11 -15 16 0 8 -19 -41 -93 -38 -57 -49 -66
-67 -62 -36 8 -27 -12 17 -41 41 -27 63 -27 40 1 -10 12 -5 26 31 79 51 75 54
69 41 -67 -7 -81 -7 -89 11 -99 10 -5 20 -8 21 -6 1 2 28 40 60 86 45 64 61
80 71 72 10 -8 15 -8 20 0 4 6 5 12 4 14 -2 1 -21 14 -41 29 -42 31 -48 33
-48 12 0 -8 5 -15 10 -15 6 0 10 -4 10 -9 0 -12 -82 -132 -87 -127 -2 2 1 48
6 102 l10 99 -32 27 c-37 31 -47 34 -47 13z"/>
<path d="M1690 1821 c0 -6 5 -13 11 -16 14 -9 9 -19 -46 -99 -34 -48 -51 -64
-58 -57 -15 15 -27 14 -27 -2 0 -7 28 -30 62 -50 93 -55 156 -48 193 23 32 62
10 120 -68 176 -48 35 -67 42 -67 25z m87 -73 c30 -34 34 -55 19 -93 -20 -47
-57 -69 -101 -61 -20 4 -38 13 -41 21 -5 13 84 155 97 155 3 0 15 -10 26 -22z"/>
<path d="M3707 2345 c-36 -25 -51 -50 -24 -39 18 6 79 -80 71 -100 -8 -20 0
-20 31 0 24 15 37 43 14 29 -10 -7 -38 21 -39 38 0 19 31 17 59 -4 25 -18 33
-20 46 -9 20 16 19 34 -1 51 -15 12 -16 11 -10 -9 4 -12 4 -22 -1 -22 -15 1
-58 39 -51 46 13 12 -12 44 -35 44 -12 0 -39 -11 -60 -25z m73 -13 c0 -18 -18
-42 -32 -42 -4 0 -12 10 -19 21 -9 17 -8 23 2 30 24 15 49 10 49 -9z"/>
<path d="M3592 2264 c-49 -35 -69 -60 -38 -48 21 8 88 -86 74 -103 -6 -7 -7
-13 -2 -13 12 0 114 71 114 79 0 15 -29 46 -36 39 -4 -4 -2 -14 5 -22 9 -11 6
-18 -16 -36 l-28 -21 -17 21 c-22 28 -14 44 19 35 24 -6 25 -6 6 19 -19 27
-36 34 -27 12 8 -21 -27 -29 -42 -9 -12 16 -10 21 12 41 25 22 27 22 45 6 11
-10 21 -15 24 -13 6 6 -24 49 -34 49 -4 0 -30 -16 -59 -36z"/>
<path d="M3467 2173 c-37 -26 -50 -47 -23 -37 18 7 80 -81 72 -102 -8 -22 10
-17 41 12 23 20 24 24 8 20 -13 -4 -24 1 -33 14 -10 16 -8 23 13 44 28 28 31
46 13 64 -19 19 -50 14 -91 -15z m69 -8 c6 -16 -12 -45 -27 -45 -5 0 -13 10
-20 21 -9 17 -8 23 2 30 21 13 39 11 45 -6z"/>
<path d="M3349 2091 c-17 -13 -23 -29 -23 -56 0 -72 85 -112 132 -62 31 33 28
72 -7 108 -34 34 -69 37 -102 10z m69 -17 c50 -34 48 -104 -3 -104 -45 0 -83
78 -53 108 16 16 29 15 56 -4z"/>
<path d="M3120 1925 c-104 -76 -146 -114 -107 -99 11 4 19 -8 31 -42 9 -26 16
-49 16 -51 0 -3 -20 10 -44 28 -30 21 -43 36 -39 46 5 13 2 13 -14 5 -11 -6
-25 -18 -33 -26 -10 -13 -10 -16 4 -16 10 0 44 -18 76 -40 32 -22 61 -40 64
-40 11 0 6 35 -13 95 -20 64 -20 70 8 84 15 8 24 2 50 -35 21 -30 30 -52 26
-65 -9 -27 -1 -24 61 22 33 24 52 45 48 52 -15 27 -27 36 -36 31 -5 -3 -2 -14
7 -24 14 -16 14 -19 -9 -34 -33 -21 -43 -20 -55 3 -13 24 9 47 27 29 21 -21
13 8 -9 33 -13 15 -19 18 -16 8 9 -27 -14 -41 -35 -22 -24 21 -23 28 8 48 24
15 27 15 44 0 10 -9 21 -12 24 -7 3 5 -1 15 -9 22 -21 17 -19 30 5 30 25 0 82
-82 73 -106 -7 -19 -6 -18 65 30 l42 28 -22 31 c-12 17 -24 25 -26 18 -2 -6 2
-19 9 -27 11 -14 10 -18 -6 -30 -10 -8 -22 -14 -26 -14 -16 0 -69 85 -63 102
3 10 2 18 -3 17 -4 0 -60 -38 -123 -84z"/>
<path d="M2848 1729 c-57 -40 -73 -57 -43 -45 21 8 86 -82 79 -108 -5 -14 9
-8 54 24 60 41 61 43 45 66 -15 23 -33 32 -33 16 0 -4 6 -14 13 -21 10 -10 7
-16 -12 -32 -27 -22 -39 -21 -55 4 -8 12 -7 20 2 29 10 10 15 10 22 -2 5 -8
12 -11 15 -8 8 8 -26 57 -39 58 -4 0 -6 -6 -3 -14 3 -8 0 -19 -7 -25 -10 -9
-17 -6 -28 11 -14 21 -14 25 8 41 28 21 40 22 52 1 6 -10 12 -13 16 -6 3 5 -2
19 -12 31 l-17 21 -57 -41z"/>
<path d="M2703 1624 c-43 -25 -58 -50 -25 -40 24 7 86 -82 70 -101 -15 -19 0
-16 38 8 59 36 73 98 31 137 -30 29 -62 28 -114 -4z m96 -20 c26 -33 27 -56 2
-78 -18 -16 -20 -15 -54 33 -33 45 -35 51 -19 60 28 17 49 12 71 -15z"/>
</g>
</svg>
